<svg fill="#FFBC5E" width="240px" height="240px" version="1.1" viewBox="144 144 512 512" xmlns="http://www.w3.org/2000/svg"><g id="SVGRepo_bgCarrier" stroke-width="0"></g><g id="SVGRepo_tracerCarrier" stroke-linecap="round" stroke-linejoin="round"></g><g id="SVGRepo_iconCarrier"> <path d="m266.78 480h-73.906c-3.8164 0-6.9023 3.0898-6.9023 6.9023v120.23c0 3.8164 3.0898 6.9023 6.9023 6.9023h73.906c3.8164 0 6.9023-3.0898 6.9023-6.9023l0.003906-120.22c0-3.8164-3.0898-6.9062-6.9062-6.9062zm-6.9023 120.22h-60.098v-106.42h60.098zm120.35-232.62h-73.906c-3.8164 0-6.9023 3.0898-6.9023 6.9023v232.62c0 3.8164 3.0898 6.9023 6.9023 6.9023h73.906c3.8164 0 6.9023-3.0898 6.9023-6.9023v-232.62c0-3.8125-3.0859-6.9023-6.9023-6.9023zm-6.9023 232.63h-60.098v-218.82h60.102v218.82zm120.35-168.34h-73.91c-3.8164 0-6.9023 3.0898-6.9023 6.9023v168.34c0 3.8164 3.0898 6.9023 6.9023 6.9023h73.906c3.8164 0 6.9023-3.0898 6.9023-6.9023v-168.34c0.007812-3.8125-3.082-6.9023-6.8984-6.9023zm-6.9023 168.34h-60.105v-154.54h60.102zm120.35-298.24h-73.906c-3.8164 0-6.9023 3.0898-6.9023 6.9023v298.25c0 3.8164 3.0898 6.9023 6.9023 6.9023h73.906c3.8164 0 6.9023-3.0898 6.9023-6.9023v-298.25c0-3.8086-3.0898-6.8984-6.9023-6.8984zm-6.9062 298.25h-60.094v-284.45h60.102v284.45zm-370.39-157.96c21.125 0 38.316-17.188 38.316-38.316 0-8.668-2.9258-16.641-7.7969-23.066l58.746-62.066c6.6016 5.3867 15.016 8.6328 24.184 8.6328 12.277 0 23.191-5.8242 30.207-14.832l46.539 27.652c-1.0391 3.4766-1.6211 7.1523-1.6211 10.961 0 21.125 17.188 38.316 38.316 38.316 21.125 0 38.309-17.188 38.309-38.316 0-8.8984-3.0781-17.082-8.1914-23.598l60.25-72.836c6.4258 4.875 14.406 7.7969 23.074 7.7969 21.125 0 38.316-17.188 38.316-38.316 0-21.129-17.188-38.316-38.316-38.316s-38.316 17.188-38.316 38.316c0 7.4297 2.1602 14.348 5.8359 20.223l-61.18 73.984c-5.7852-3.5078-12.539-5.5625-19.777-5.5625-12.375 0-23.367 5.9219-30.371 15.051l-46.449-27.598c1.0938-3.5586 1.6914-7.332 1.6914-11.238 0-21.125-17.188-38.316-38.316-38.316s-38.316 17.188-38.316 38.316c0 6.957 1.8906 13.465 5.1445 19.09l-59.934 63.316c-5.9023-3.7227-12.867-5.9062-20.344-5.9062-21.129 0-38.316 17.188-38.316 38.316 0.003906 21.125 17.188 38.312 38.316 38.312zm340.34-242.49c13.512 0 24.508 10.992 24.508 24.508s-10.992 24.508-24.508 24.508c-13.512 0-24.508-10.992-24.508-24.508 0.003907-13.516 10.992-24.508 24.508-24.508zm-113.45 126.95c13.512 0 24.508 10.992 24.508 24.508 0 13.512-10.992 24.508-24.508 24.508-13.512 0-24.508-10.992-24.508-24.508 0-13.52 11-24.508 24.508-24.508zm-113.45-62.105c13.512 0 24.508 10.992 24.508 24.508s-10.996 24.508-24.508 24.508c-13.512 0-24.508-10.992-24.508-24.508s10.996-24.508 24.508-24.508zm-113.45 114.82c13.512 0 24.508 10.992 24.508 24.508 0 13.512-10.992 24.508-24.508 24.508s-24.508-10.992-24.508-24.508c-0.003906-13.512 10.992-24.508 24.508-24.508z"></path> </g></svg>