<svg width="240px" height="240px" version="1.1" viewBox="144 144 512 512" xmlns="http://www.w3.org/2000/svg" fill="#FFBC5E"><g id="SVGRepo_bgCarrier" stroke-width="0"></g><g id="SVGRepo_tracerCarrier" stroke-linecap="round" stroke-linejoin="round"></g><g id="SVGRepo_iconCarrier"> <defs> <clipPath id="d"> <path d="m148.09 557h47.906v58h-47.906z"></path> </clipPath> <clipPath id="c"> <path d="m604 557h47.902v58h-47.902z"></path> </clipPath> <clipPath id="b"> <path d="m173 148.09h478.9v196.91h-478.9z"></path> </clipPath> <clipPath id="a"> <path d="m148.09 292h478.91v359.9h-478.91z"></path> </clipPath> </defs> <path d="m569.86 342.07h-66.789c-1.1875 0-2.1523-0.96484-2.1523-2.1562 0-1.1914 0.96484-2.1562 2.1523-2.1562h66.789c1.1875 0 2.1523 0.96484 2.1523 2.1562 0 1.1914-0.96484 2.1562-2.1523 2.1562z"></path> <path d="m293.57 342.07h-27.676c-1.1875 0-2.1523-0.96484-2.1523-2.1562 0-1.1914 0.96484-2.1562 2.1523-2.1562h27.676c1.1875 0 2.1523 0.96484 2.1523 2.1562 0.003906 1.1914-0.96094 2.1562-2.1523 2.1562z"></path> <path d="m426.89 244.82h-196.75c-1.1875 0-2.1523-0.96484-2.1523-2.1562 0-1.1914 0.96484-2.1562 2.1523-2.1562h196.75c1.1875 0 2.1523 0.96484 2.1523 2.1562 0.003907 1.1914-0.96094 2.1562-2.1484 2.1562z"></path> <path d="m467.34 277.42h-137.97c-1.1875 0-2.1523-0.96484-2.1523-2.1562s0.96484-2.1562 2.1523-2.1562h137.97c1.1875 0 2.1523 0.96484 2.1523 2.1562s-0.96484 2.1562-2.1523 2.1562z"></path> <path d="m293.57 277.42h-27.676c-1.1875 0-2.1523-0.96484-2.1523-2.1562s0.96484-2.1562 2.1523-2.1562h27.676c1.1875 0 2.1523 0.96484 2.1523 2.1562 0.003906 1.1914-0.96094 2.1562-2.1523 2.1562z"></path> <path d="m569.86 439.79h-66.789c-1.1875 0-2.1523-0.96484-2.1523-2.1562 0-1.1914 0.96484-2.1562 2.1523-2.1562h66.789c1.1875 0 2.1523 0.96484 2.1523 2.1562 0 1.1914-0.96484 2.1562-2.1523 2.1562z"></path> <path d="m253.53 614.92h-24.57c-0.70313 0-1.3594-0.34375-1.7617-0.91797l-18.43-26.336c-0.51953-0.74219-0.51953-1.7305 0-2.4727l18.43-26.336c0.40234-0.57422 1.0625-0.91797 1.7617-0.91797h24.574c1.957 0.41797 2.5469 1.5469 1.7617 3.3906l-17.562 25.098 17.562 25.098c0.78516 1.8477 0.19531 2.9805-1.7656 3.3945z"></path> <g clip-path="url(#d)"> <path d="m193.25 614.92h-24.574c-0.70312 0-1.3594-0.34375-1.7617-0.91797l-18.43-26.336c-0.51953-0.74219-0.51953-1.7305 0-2.4727l18.43-26.336c0.40234-0.57422 1.0625-0.91797 1.7617-0.91797h24.574c1.957 0.41797 2.5469 1.5469 1.7617 3.3906l-17.562 25.098 17.562 25.098c0.78516 1.8477 0.19531 2.9805-1.7617 3.3945zm-23.453-4.3086h19.316l-16.055-22.941c-0.51953-0.74219-0.51953-1.7305 0-2.4727l16.055-22.941-19.316-0.003906-16.922 24.18z"></path> </g> <path d="m544.59 611.53 17.562-25.098-17.562-25.098c-0.78125-1.8438-0.19531-2.9766 1.7617-3.3906h24.574c0.70312 0 1.3594 0.34375 1.7617 0.91797l18.43 26.336c0.51953 0.74219 0.51953 1.7305 0 2.4727l-18.43 26.336c-0.40234 0.57422-1.0625 0.91797-1.7617 0.91797h-24.57c-1.9609-0.41797-2.5469-1.5508-1.7656-3.3945z"></path> <g clip-path="url(#c)"> <path d="m604.87 611.53 17.562-25.098-17.562-25.098c-0.78125-1.8438-0.19531-2.9766 1.7617-3.3906h24.574c0.70312 0 1.3594 0.34375 1.7617 0.91797l18.43 26.336c0.51953 0.74219 0.51953 1.7305 0 2.4727l-18.43 26.336c-0.40234 0.57422-1.0625 0.91797-1.7617 0.91797h-24.57c-1.9609-0.41797-2.5469-1.5508-1.7656-3.3945zm42.137-25.098-16.922-24.18h-19.316l16.055 22.941c0.51953 0.74219 0.51953 1.7305 0 2.4727l-16.055 22.941h19.316z"></path> </g> <path d="m605.9 306.78h-2.6797c-1.1875 0-2.1523-0.96484-2.1523-2.1562s0.96484-2.1562 2.1523-2.1562h2.6797c2.2852 0 4.1445-1.8438 4.1445-4.1055v-9.0586c0-0.57422 0.23047-1.125 0.63672-1.5273l3.707-3.6875-3.707-3.6875c-0.40625-0.40625-0.63672-0.95312-0.63672-1.5273v-9.0586c0-2.2656-1.8594-4.1055-4.1445-4.1055h-2.6797c-1.1875 0-2.1523-0.96484-2.1523-2.1562 0-1.1914 0.96484-2.1562 2.1523-2.1562h2.6797c4.6602 0 8.4492 3.7734 8.4492 8.4141v8.1602l4.6094 4.5859c0.84766 1.0195 0.84766 2.0391 0 3.0586l-4.6094 4.5859v8.1602c0 4.6445-3.7891 8.418-8.4492 8.418z"></path> <path d="m571.36 306.78h-2.6797c-4.6602 0-8.4492-3.7734-8.4492-8.4141v-8.1602l-4.6094-4.5859c-0.84766-1.0195-0.84766-2.0391 0-3.0586l4.6094-4.5859v-8.1602c0-4.6406 3.7891-8.4141 8.4492-8.4141h2.6797c1.1875 0 2.1523 0.96484 2.1523 2.1562s-0.96484 2.1562-2.1523 2.1562h-2.6797c-2.2852 0-4.1445 1.8438-4.1445 4.1055v9.0586c0 0.57422-0.23047 1.125-0.63672 1.5273l-3.707 3.6875 3.707 3.6875c0.40625 0.40625 0.63672 0.95312 0.63672 1.5273v9.0586c0 2.2656 1.8594 4.1055 4.1445 4.1055h2.6797c1.1875 0 2.1523 0.96484 2.1523 2.1562 0.003906 1.1914-0.96094 2.1523-2.1523 2.1523z"></path> <g clip-path="url(#b)"> <path d="m649.75 246.37h-23.684v-96.117c0-1.1914-0.96484-2.1562-2.1562-2.1562h-447.83c-1.1914 0-2.1523 0.96484-2.1523 2.1523v192.34c0 1.1914 0.96484 2.1523 2.1523 2.1523 1.1914 0 2.1523-0.96484 2.1523-2.1523v-130.5h443.52v34.285h-96.922c-1.1914 0-2.1562 0.96484-2.1562 2.1562v24.59h-19.5c-1.0742 0-2.0664 0.73438-2.2383 1.793-0.21875 1.3516 0.81641 2.5156 2.125 2.5156h19.617v42.238c0 1.1914 0.96484 2.1562 2.1562 2.1562h104.54l18.77 20.832c1.1992 1.332 3.75 0.69141 3.75-1.4453l0.003906-92.68c-0.003906-1.1914-0.96875-2.1562-2.1562-2.1562zm-139.28-56.391c-5.3516 0-9.6875-4.3359-9.6875-9.6875 0-5.3516 4.3398-9.6875 9.6875-9.6875 5.3516 0 9.6875 4.3359 9.6875 9.6875 0 5.3477-4.3359 9.6875-9.6875 9.6875zm41.984 0c-5.3516 0-9.6875-4.3359-9.6875-9.6875 0-5.3516 4.3398-9.6875 9.6875-9.6875 5.3516 0 9.6875 4.3359 9.6875 9.6875 0 5.3477-4.3359 9.6875-9.6875 9.6875zm41.984 0c-5.3516 0-9.6875-4.3359-9.6875-9.6875 0-5.3516 4.3398-9.6875 9.6875-9.6875 5.3516 0 9.6875 4.3359 9.6875 9.6875 0 5.3477-4.3359 9.6875-9.6875 9.6875zm53.16 145.62-15.656-17.379c-0.40625-0.45312-0.98828-0.71094-1.5977-0.71094h-103.35l-0.003907-66.832h120.61z"></path> </g> <g clip-path="url(#a)"> <path d="m623.91 361.23c-1.1875 0-2.1523 0.96484-2.1523 2.1523v145.45h-115.55c-3.293-10.297-6.7617-18.508-9.7891-24.723-2.0547-4.2148-4.5781-8.1328-7.5039-11.711h80.82c1.0742 0 2.0664-0.73438 2.2383-1.793 0.21875-1.3516-0.81641-2.5195-2.125-2.5195h-84.816c-9.5547-9.6172-23.727-16.473-36.332-21.438-5.4414-2.1562-10.863-3.918-16.121-5.2383-1.2148-0.30469-2.3164-0.86719-3.2461-1.6133h37.883c1.0742 0 2.0664-0.73437 2.2383-1.793 0.21875-1.3516-0.81641-2.5156-2.125-2.5156h-40.863c-0.22266-0.77344-0.34766-1.5898-0.34766-2.4297l0.015625-11.645c7.1289-5.9609 12.207-14.289 14.066-23.754 2.3672-0.4375 4.7578-2.0625 6.832-4.7969 3.3359-4.4023 5.7539-11.84 4.5586-18.188h118.15c1.0742 0 2.0664-0.73438 2.2383-1.793 0.21875-1.3516-0.81641-2.5195-2.125-2.5195l-119.82 0.003906c-0.68359-1.2305-1.5469-2.375-2.6719-3.3594-0.375-0.32812-0.78906-0.56641-1.2148-0.76172 3.2344-6.4336 6.582-15.051 7.3594-24.168h13.707c1.0742 0 2.0664-0.73437 2.2383-1.793 0.21875-1.3516-0.81641-2.5156-2.125-2.5156h-13.652c-0.10156-9.5117-3.3828-19.273-12.809-27.453-2.3477-1.6641-4.6211-1.8594-6.8203-0.58594-9.3047-11.562-24.465-16.371-35.055-16.945-12.699-0.6875-27.844 4.3359-37.961 12.391l-130.78-0.007813c-1.0742 0-2.0664 0.73438-2.2383 1.793-0.21875 1.3516 0.81641 2.5156 2.125 2.5156h126.22c-7.8281 8.418-10.57 18.457-10.641 28.289h-16.242c-1.0742 0-2.0664 0.73438-2.2383 1.793-0.21875 1.3516 0.81641 2.5195 2.125 2.5195h16.492c0.62891 9.2812 3.3594 18.133 6.1211 24.965-1.1094 0.97656-1.9648 2.1094-2.6406 3.3281h-83.332c-1.0742 0-2.0664 0.73438-2.2383 1.793-0.21875 1.3516 0.81641 2.5156 2.125 2.5156h81.898c-1.1992 6.3438 1.2188 13.781 4.5547 18.188 2.0703 2.7344 4.457 4.3594 6.8242 4.7969 0.35156 1.7891 0.82031 3.5312 1.3945 5.2305h-83.25v-14.746c0-1.1914-0.96484-2.1562-2.1562-2.1562l-124.91-0.003906c-1.1914 0-2.1562 0.96484-2.1562 2.1562v92.684c0 2.1367 2.5547 2.7734 3.75 1.4453l18.77-20.832 3.3164-0.003906v49.551c0 1.1914 0.96484 2.1562 2.1562 2.1562h116.37c-5.5156 18.527-9.0195 38.41-10.281 57.727-0.91797 13.977 6.6562 26.992 19.289 33.152l10.895 5.3164 2.293 40.539c0.066406 1.1406 1.0078 2.0352 2.1484 2.0352h165.79c1.1406 0 2.0859-0.89062 2.1484-2.0352l2.2734-40.227 11.531-5.625c12.633-6.1641 20.207-19.176 19.293-33.152-1.2656-19.316-4.7695-39.199-10.285-57.727l116.37-0.003906c1.1875 0 2.1523-0.96484 2.1523-2.1523v-147.61c0-1.1875-0.96484-2.1523-2.1523-2.1523zm-192.38 84.363c4.1992 1.0547 8.5156 2.4023 12.859 4.0195-11.18 13.371-27.402 21.039-44.953 21.145h-0.35937c-17.469 0-33.688-7.5117-44.949-20.738 4.3359-1.6133 8.6445-2.957 12.836-4.0117 5.7305-1.4375 9.7266-6.5938 9.7188-12.539l-0.011718-9.4648c6.582 4.4336 14.5 7.0273 23.012 7.0273 8.1406 0 15.734-2.3789 22.141-6.4648l-0.011719 8.4922c-0.011718 5.9375 3.9883 11.094 9.7188 12.535zm-75.766-55.34c-3.9648-5.2344-6.2383-15.371-0.9375-20 0.17187-0.14844 0.29297-0.18359 0.52734-0.14844 1.9141 0.27734 5.207 4.168 6.8281 6.7109 0.64062 1.0039 1.9727 1.2969 2.9727 0.65625 1.0039-0.64062 1.2969-1.9688 0.66016-2.9727-0.44922-0.70703-1.9219-2.918-3.8789-4.9375 0.35938-9.2422 2.6016-19.012 3.6758-23.207 19.605 5.6719 32.676 0.85547 38.668-2.4688-0.36719 1.5391-0.94922 3.1875-1.4766 4.3711-0.44141 1.4766 0.0625 2.4688 1.5117 2.9844 12.711 2.7461 22.18-5.0312 25.688-8.5273 5.7383 5.8047 6.1484 20.312 5.8711 28.582-1.168 1.4219-2.0117 2.6953-2.332 3.2031-0.63672 1.0039-0.34375 2.332 0.66016 2.9727 1.0039 0.63672 2.332 0.34375 2.9727-0.65625 1.625-2.543 4.9141-6.4375 6.832-6.7109 0.23828-0.035156 0.35547 0.003907 0.52734 0.14844 5.3008 4.6289 3.0273 14.77-0.9375 20-1.0312 1.3633-3.6953 4.3555-6.1484 2.7461-0.99219-0.65234-2.3281-0.375-2.9805 0.62109-0.65234 0.99609-0.375 2.332 0.62109 2.9844 0.27734 0.18359 0.55859 0.33594 0.84766 0.47656-3.4375 16.887-18.379 29.637-36.25 29.637-17.871 0-32.805-12.754-36.242-29.645 0.28125-0.14062 0.5625-0.29297 0.83594-0.47266 0.99609-0.65234 1.2734-1.9883 0.62109-2.9844-0.65234-0.99609-1.9844-1.2734-2.9805-0.62109-2.457 1.6094-5.125-1.3789-6.1562-2.7422zm-127.44 21.496c-0.95703-0.70312-1.1641-2.0547-0.46094-3.0117s2.0508-1.1641 3.0117-0.46094l18.629 13.699c0.55078 0.40625 1.2969 2.4062 0 3.4727l-18.633 13.695c-1.1992 0.76953-2.5898 0.11328-3.0117-0.46094-0.70312-0.96094-0.49609-2.3086 0.46094-3.0117l16.27-11.961zm-21.004 25.246 6.5586-27.574c0.27734-1.1602 1.4375-1.875 2.5938-1.5977 1.1562 0.27734 1.8711 1.4375 1.5977 2.5938l-6.5586 27.574c-0.48438 1.9766-2.4258 1.6367-2.5938 1.5977-1.1602-0.27344-1.875-1.4336-1.5977-2.5938zm-31.438-11.551c-1.7383-1.3359-0.55078-3.0664 0-3.4727l18.629-13.699c0.96094-0.70312 2.3047-0.5 3.0117 0.46094 0.70312 0.96094 0.49609 2.3086-0.46094 3.0117l-16.27 11.961 16.27 11.961c0.95703 0.70313 1.1641 2.0547 0.46094 3.0117-0.42188 0.57422-1.6016 1.2773-3.0117 0.46094zm2.3398 83.387v-47.395h96.926c1.1875 0 2.1523-0.96484 2.1523-2.1562v-19.484h16.254c1.1875 0 2.1523-0.96484 2.1523-2.1562 0-1.1914-0.96484-2.1562-2.1523-2.1562h-16.254v-28.289h84.98c2.4141 5.1523 5.8594 9.7266 10.07 13.457l0.015625 12.816c0 0.69141-0.082031 1.3633-0.23828 2.0156h-42.781c-1.1875 0-2.1523 0.96484-2.1523 2.1562 0 1.1914 0.96484 2.1562 2.1523 2.1562h40.285c-1.0273 0.95703-2.2969 1.668-3.7305 2.0273-13.973 3.5078-27.289 9.8281-39.555 17.273-4.1797 2.5352-8 5.5586-11.406 8.9883h-49.066c-1.1875 0-2.1523 0.96484-2.1523 2.1562 0 1.1914 0.96484 2.1562 2.1523 2.1562h45.188c-2.9219 3.5781-5.4492 7.5-7.5039 11.711-3.0312 6.2109-6.4961 14.426-9.7891 24.723zm302.31 138.77h-161.71l-6.2148-109.91h174.14zm31.711-89.828c0.5625 4.6172 0.99219 9.1211 1.2695 13.383 0.80078 12.223-5.8242 23.605-16.879 29l-9.3672 4.5703 3.9062-69.055c-0.0625-1.375-0.78125-2.1367-2.1484-2.2773h-26.598c-2.3438-12.039-4.3164-24.172-4.6875-32.445-0.054687-1.1875-1.082-2.1289-2.2461-2.0547-1.1875 0.054687-2.1094 1.0586-2.0547 2.25 0.375 8.375 2.2891 20.348 4.5859 32.254l-112.35-0.011719c3.1875-11.898 5.793-23.859 6.168-32.254 0.054687-1.1875-0.86719-2.1953-2.0547-2.25-1.1953-0.054688-2.1953 0.86719-2.2461 2.0547-0.36719 8.2578-3.0781 20.402-6.3477 32.445h-30.871c-1.3711 0.14062-2.0859 0.89844-2.1484 2.2773l3.8867 68.746-8.7305-4.2578c-11.055-5.3945-17.68-16.773-16.879-29 1.8867-28.816 8.2305-59.012 20.977-85.148 4.7031-9.6445 12.02-17.672 21.152-23.215 5.4023-3.2773 12.703-7.4141 21.367-11.082 12.109 14.871 29.898 23.367 49.121 23.363h0.38672c19.301-0.11328 37.09-8.7773 49.102-23.793 9.1367 3.7109 17.051 8.0078 22.828 11.512 9.1367 5.543 16.449 13.57 21.156 23.215 6.6562 13.66 15.48 37.199 19.699 71.773z"></path> </g> <path d="m181.47 363.54c0 7.1797-10.77 7.1797-10.77 0 0-7.1797 10.77-7.1797 10.77 0"></path> <path d="m629.3 343.13c0 7.1797-10.773 7.1797-10.773 0 0-7.1797 10.773-7.1797 10.773 0"></path> <path d="m591.37 284.2c0 5.3516-8.1562 5.3516-8.1562 0 0-5.3555 8.1562-5.3555 8.1562 0"></path> <path d="m604.87 284.2c0 4.1602-6.3477 4.1602-6.3477 0 0-4.1641 6.3477-4.1641 6.3477 0"></path> <path d="m576.06 284.2c0 4.1602-6.3477 4.1602-6.3477 0 0-4.1641 6.3477-4.1641 6.3477 0"></path> <path d="m432.71 564.29c-0.53125 0-1.0664-0.19531-1.4805-0.58984-3.9492-3.7461-10.133-3.7461-14.082 0-0.86328 0.81641-2.2266 0.78125-3.043-0.078125-0.82031-0.86328-0.78516-2.2266 0.078125-3.043 5.6133-5.3242 14.586-5.5156 20.012 0 1.1055 1.1211 0.78906 3.7109-1.4844 3.7109z"></path> <path d="m430.08 585.73c0 6.7422-10.027 6.7422-10.027 0s10.027-6.7422 10.027 0"></path> <path d="m382.57 564.29c-0.53125 0-1.0664-0.19531-1.4805-0.58984-3.9492-3.7461-10.133-3.7461-14.082 0-0.86328 0.82031-2.2227 0.78516-3.043-0.078125-0.81641-0.86328-0.78516-2.2266 0.078125-3.043 5.6094-5.3281 14.227-5.1367 20.012 0 1.3672 1.2109 0.42187 3.9922-1.4844 3.7109z"></path> <path d="m425.07 570.94c-6.7305 0-12.406 4.5898-14.133 10.82-6.6602-4.3359-15.215-4.3477-21.875-0.011719-1.7344-6.2266-7.4023-10.809-14.133-10.809-8.0977 0-14.688 6.6367-14.688 14.793s6.5898 14.793 14.688 14.793c7.7578 0 14.113-6.0938 14.637-13.777 6-5.2617 14.867-5.2617 20.867 0 0.52344 7.6836 6.8789 13.777 14.637 13.777 8.0977 0 14.688-6.6367 14.688-14.793s-6.5898-14.793-14.688-14.793zm-50.141 25.281c-5.7266 0-10.383-4.707-10.383-10.488 0-5.7852 4.6562-10.488 10.383-10.488 5.7227 0 10.383 4.707 10.383 10.488-0.003906 5.7812-4.6602 10.488-10.383 10.488zm50.141 0c-5.7266 0-10.383-4.707-10.383-10.488 0-5.7852 4.6562-10.488 10.383-10.488 5.7227 0 10.383 4.707 10.383 10.488-0.003906 5.7812-4.6602 10.488-10.383 10.488z"></path> <path d="m379.94 585.73c0 6.7422-10.027 6.7422-10.027 0s10.027-6.7422 10.027 0"></path> <path d="m400 624.32c-9.0703 0-16.453-6.3984-16.453-14.266 0-1.1875 0.96484-2.1523 2.1523-2.1523s2.1523 0.96484 2.1523 2.1523c0 5.4922 5.4492 9.957 12.148 9.957s12.145-4.4648 12.145-9.957c0-1.1875 0.96484-2.1523 2.1523-2.1523s2.1523 0.96484 2.1523 2.1523c0 7.8672-7.3789 14.266-16.449 14.266z"></path> </g></svg>